# xmcd CD database file
#
# Track frame offsets:
#	150
#	18908
#	43867
#	75383
#
# Disc length: 1200 seconds
#
# Revision: 3
# Processed by: cddbd v1.4PL0 Copyright (c) Steve Scherf et al.
# Submitted via: CDex 1.51
#
DISCID=2204ae04
DTITLE=Sergio Cammariere - Tutto quello che un uomo
DYEAR=2003
DGENRE=Jazz
TTITLE0=Tutto quello che un uomo
TTITLE1=My song
TTITLE2=Sorella mia
TTITLE3=Untitled
EXTD=YEAR: 2003
EXTT0=
EXTT1=
EXTT2=
EXTT3=
PLAYORDER=
